<svg width="180" height="217" viewBox="0 0 180 217" fill="none" xmlns="http://www.w3.org/2000/svg">
<circle cx="90" cy="90" r="90" transform="matrix(-1 0 0 1 180 0)" fill="white"/>
<path d="M56.8093 80.7999C58.8124 82.7921 60.8156 84.7873 62.8249 86.7732C63.9493 87.8861 64.5546 89.2142 64.4071 90.8067C64.2197 92.8172 63.1812 94.259 61.2918 94.9876C59.4515 95.6978 57.7279 95.3719 56.2624 94.0592C55.1779 93.0878 54.1824 92.0179 53.1532 90.988C49.3313 87.1637 45.5062 83.3423 41.6904 79.5118C39.1957 77.0094 39.1926 74.2518 41.6904 71.7462C46.4003 67.0211 51.104 62.2867 55.8446 57.5923C58.6527 54.8101 63.0676 55.8216 64.1521 59.4769C64.7113 61.3583 64.2535 63.0461 62.8709 64.4479C61.1228 66.2218 59.3501 67.9772 57.5927 69.7449C57.3377 70.0031 57.1011 70.2798 56.6802 70.744C57.3899 70.744 57.8324 70.744 58.2778 70.744C75.7163 70.744 93.1578 70.7256 110.596 70.7502C123.294 70.7686 133.761 78.7094 137.055 90.7544C141.325 106.362 130.649 122.395 114.584 124.467C113.22 124.642 111.834 124.716 110.461 124.716C93.7108 124.731 76.9606 124.731 60.2103 124.716C59.4545 124.716 58.6619 124.679 57.946 124.461C55.6326 123.75 54.3207 121.543 54.6402 119.071C54.929 116.836 56.8769 115.081 59.2087 114.961C59.6665 114.937 60.1274 114.946 60.5882 114.946C77.2217 114.946 93.8583 114.958 110.492 114.937C117.051 114.927 122.268 112.243 125.666 106.596C129.055 100.961 129.153 95.043 125.918 89.3095C122.609 83.4438 117.361 80.5601 110.655 80.5417C93.0625 80.4956 75.4674 80.5263 57.8754 80.5263C57.5743 80.5263 57.2732 80.5263 56.9721 80.5263C56.9168 80.6155 56.8646 80.7077 56.8093 80.7969V80.7999Z" fill="black"/>
<path d="M46.6461 212V198H53.0461C54.3261 198 55.4261 198.207 56.3461 198.62C57.2794 199.033 57.9994 199.633 58.5061 200.42C59.0128 201.193 59.2661 202.113 59.2661 203.18C59.2661 204.233 59.0128 205.147 58.5061 205.92C57.9994 206.68 57.2794 207.267 56.3461 207.68C55.4261 208.08 54.3261 208.28 53.0461 208.28H48.8461L50.6061 206.62V212H46.6461ZM55.3061 212L51.8261 206.9H56.0461L59.5461 212H55.3061ZM50.6061 207.04L48.8461 205.22H52.8061C53.6328 205.22 54.2461 205.04 54.6461 204.68C55.0594 204.32 55.2661 203.82 55.2661 203.18C55.2661 202.527 55.0594 202.02 54.6461 201.66C54.2461 201.3 53.6328 201.12 52.8061 201.12H48.8461L50.6061 199.3V207.04ZM65.0908 203.42H71.5908V206.38H65.0908V203.42ZM65.3708 208.94H72.6908V212H61.4508V198H72.4308V201.06H65.3708V208.94ZM74.8883 212V198H81.2883C82.5683 198 83.6683 198.207 84.5883 198.62C85.5216 199.033 86.2416 199.633 86.7483 200.42C87.2549 201.193 87.5083 202.113 87.5083 203.18C87.5083 204.233 87.2549 205.147 86.7483 205.92C86.2416 206.693 85.5216 207.293 84.5883 207.72C83.6683 208.133 82.5683 208.34 81.2883 208.34H77.0883L78.8483 206.62V212H74.8883ZM78.8483 207.04L77.0883 205.22H81.0483C81.8749 205.22 82.4883 205.04 82.8883 204.68C83.3016 204.32 83.5083 203.82 83.5083 203.18C83.5083 202.527 83.3016 202.02 82.8883 201.66C82.4883 201.3 81.8749 201.12 81.0483 201.12H77.0883L78.8483 199.3V207.04ZM93.0791 203.42H99.5791V206.38H93.0791V203.42ZM93.3591 208.94H100.679V212H89.4391V198H100.419V201.06H93.3591V208.94ZM105.857 212V201.14H101.557V198H114.097V201.14H109.817V212H105.857ZM115.572 212V198H119.532V212H115.572ZM122.349 212V198H128.749C130.029 198 131.129 198.207 132.049 198.62C132.983 199.033 133.703 199.633 134.209 200.42C134.716 201.193 134.969 202.113 134.969 203.18C134.969 204.233 134.716 205.147 134.209 205.92C133.703 206.68 132.983 207.267 132.049 207.68C131.129 208.08 130.029 208.28 128.749 208.28H124.549L126.309 206.62V212H122.349ZM131.009 212L127.529 206.9H131.749L135.249 212H131.009ZM126.309 207.04L124.549 205.22H128.509C129.336 205.22 129.949 205.04 130.349 204.68C130.763 204.32 130.969 203.82 130.969 203.18C130.969 202.527 130.763 202.02 130.349 201.66C129.949 201.3 129.336 201.12 128.509 201.12H124.549L126.309 199.3V207.04Z" fill="white"/>
</svg>
