<svg width="180" height="217" viewBox="0 0 180 217" fill="none" xmlns="http://www.w3.org/2000/svg">
<circle cx="90" cy="90" r="90" fill="#E74428"/>
<path d="M123.191 80.7999C121.188 82.7921 119.184 84.7873 117.175 86.7732C116.051 87.8861 115.445 89.2142 115.593 90.8067C115.78 92.8172 116.819 94.259 118.708 94.9876C120.549 95.6978 122.272 95.3719 123.738 94.0592C124.822 93.0878 125.818 92.0179 126.847 90.988C130.669 87.1637 134.494 83.3423 138.31 79.5118C140.804 77.0094 140.807 74.2518 138.31 71.7462C133.6 67.0211 128.896 62.2867 124.155 57.5923C121.347 54.8101 116.932 55.8216 115.848 59.4769C115.289 61.3583 115.747 63.0461 117.129 64.4479C118.877 66.2218 120.65 67.9772 122.407 69.7449C122.662 70.0031 122.899 70.2798 123.32 70.744C122.61 70.744 122.168 70.744 121.722 70.744C104.284 70.744 86.8422 70.7256 69.4038 70.7502C56.7059 70.7686 46.2385 78.7094 42.945 90.7544C38.6745 106.362 49.3508 122.395 65.4159 124.467C66.78 124.642 68.1656 124.716 69.539 124.716C86.2892 124.731 103.039 124.731 119.79 124.716C120.545 124.716 121.338 124.679 122.054 124.461C124.367 123.75 125.679 121.543 125.36 119.071C125.071 116.836 123.123 115.081 120.791 114.961C120.333 114.937 119.873 114.946 119.412 114.946C102.778 114.946 86.1417 114.958 69.5082 114.937C62.9488 114.927 57.7321 112.243 54.3341 106.596C50.9453 100.961 50.847 95.043 54.0822 89.3095C57.391 83.4438 62.6385 80.5601 69.3454 80.5417C86.9375 80.4956 104.533 80.5263 122.125 80.5263C122.426 80.5263 122.727 80.5263 123.028 80.5263C123.083 80.6155 123.135 80.7077 123.191 80.7969V80.7999Z" fill="white"/>
<path d="M39.6696 212.28C38.5229 212.28 37.4163 212.14 36.3496 211.86C35.2963 211.567 34.4363 211.193 33.7696 210.74L35.0696 207.82C35.6963 208.22 36.4163 208.553 37.2296 208.82C38.0563 209.073 38.8763 209.2 39.6896 209.2C40.2363 209.2 40.6763 209.153 41.0096 209.06C41.3429 208.953 41.5829 208.82 41.7296 208.66C41.8896 208.487 41.9696 208.287 41.9696 208.06C41.9696 207.74 41.8229 207.487 41.5296 207.3C41.2363 207.113 40.8563 206.96 40.3896 206.84C39.9229 206.72 39.4029 206.6 38.8296 206.48C38.2696 206.36 37.7029 206.207 37.1296 206.02C36.5696 205.833 36.0563 205.593 35.5896 205.3C35.1229 204.993 34.7429 204.6 34.4496 204.12C34.1563 203.627 34.0096 203.007 34.0096 202.26C34.0096 201.42 34.2363 200.66 34.6896 199.98C35.1563 199.3 35.8496 198.753 36.7696 198.34C37.6896 197.927 38.8363 197.72 40.2096 197.72C41.1296 197.72 42.0296 197.827 42.9096 198.04C43.8029 198.24 44.5963 198.54 45.2896 198.94L44.0696 201.88C43.4029 201.52 42.7429 201.253 42.0896 201.08C41.4363 200.893 40.8029 200.8 40.1896 200.8C39.6429 200.8 39.2029 200.86 38.8696 200.98C38.5363 201.087 38.2963 201.233 38.1496 201.42C38.0029 201.607 37.9296 201.82 37.9296 202.06C37.9296 202.367 38.0696 202.613 38.3496 202.8C38.6429 202.973 39.0229 203.12 39.4896 203.24C39.9696 203.347 40.4896 203.46 41.0496 203.58C41.6229 203.7 42.1896 203.853 42.7496 204.04C43.3229 204.213 43.8429 204.453 44.3096 204.76C44.7763 205.053 45.1496 205.447 45.4296 205.94C45.7229 206.42 45.8696 207.027 45.8696 207.76C45.8696 208.573 45.6363 209.327 45.1696 210.02C44.7163 210.7 44.0296 211.247 43.1096 211.66C42.2029 212.073 41.0563 212.28 39.6696 212.28ZM47.6988 212V198H51.6588V212H47.6988ZM61.4762 212.28C60.3695 212.28 59.3428 212.107 58.3962 211.76C57.4495 211.4 56.6295 210.893 55.9362 210.24C55.2562 209.587 54.7228 208.82 54.3362 207.94C53.9495 207.047 53.7562 206.067 53.7562 205C53.7562 203.933 53.9495 202.96 54.3362 202.08C54.7228 201.187 55.2628 200.413 55.9562 199.76C56.6495 199.107 57.4695 198.607 58.4162 198.26C59.3762 197.9 60.4228 197.72 61.5562 197.72C62.8762 197.72 64.0562 197.94 65.0962 198.38C66.1362 198.82 66.9962 199.453 67.6762 200.28L65.1562 202.56C64.6762 202.04 64.1562 201.653 63.5962 201.4C63.0495 201.133 62.4362 201 61.7562 201C61.1562 201 60.6095 201.093 60.1162 201.28C59.6228 201.467 59.2028 201.74 58.8562 202.1C58.5095 202.447 58.2362 202.867 58.0362 203.36C57.8495 203.84 57.7562 204.387 57.7562 205C57.7562 205.587 57.8495 206.127 58.0362 206.62C58.2362 207.113 58.5095 207.54 58.8562 207.9C59.2028 208.247 59.6162 208.52 60.0962 208.72C60.5895 208.907 61.1295 209 61.7162 209C62.3028 209 62.8762 208.907 63.4362 208.72C63.9962 208.52 64.5628 208.187 65.1362 207.72L67.3562 210.5C66.5562 211.073 65.6295 211.513 64.5762 211.82C63.5228 212.127 62.4895 212.28 61.4762 212.28ZM63.8562 209.98V204.7H67.3562V210.5L63.8562 209.98ZM76.3268 212.28C74.2601 212.28 72.6468 211.713 71.4868 210.58C70.3268 209.447 69.7468 207.84 69.7468 205.76V198H73.7068V205.64C73.7068 206.84 73.9401 207.7 74.4068 208.22C74.8868 208.74 75.5401 209 76.3668 209C77.1935 209 77.8401 208.74 78.3068 208.22C78.7735 207.7 79.0068 206.84 79.0068 205.64V198H82.9068V205.76C82.9068 207.84 82.3268 209.447 81.1668 210.58C80.0068 211.713 78.3935 212.28 76.3268 212.28ZM85.5895 212V198H89.5495V212H85.5895ZM96.0068 203.42H102.507V206.38H96.0068V203.42ZM96.2868 208.94H103.607V212H92.3668V198H103.347V201.06H96.2868V208.94ZM105.804 212V198H109.064L116.784 207.32H115.244V198H119.124V212H115.864L108.144 202.68H109.684V212H105.804ZM124.898 212V201.14H120.598V198H133.138V201.14H128.858V212H124.898ZM138.253 203.42H144.753V206.38H138.253V203.42ZM138.533 208.94H145.853V212H134.613V198H145.593V201.06H138.533V208.94Z" fill="white"/>
</svg>
